<svg width="183" height="172" viewBox="0 0 183 172" fill="none" xmlns="http://www.w3.org/2000/svg">
<path fill-rule="evenodd" clip-rule="evenodd" d="M65.4418 0.5L0 142.84H11.1779L29.3386 102.782H90.4369C91.4125 108.538 92.879 113.834 94.8366 118.669C98.7387 128.308 104.47 135.689 112.03 140.813C119.713 145.938 129.163 148.5 140.382 148.5C148.552 148.5 155.807 146.914 162.148 143.742C168.611 140.569 173.672 136.116 177.33 130.382C181.11 124.526 183 117.693 183 109.885C183 102.199 181.171 95.4882 177.513 89.7539C173.976 84.0197 168.977 79.6274 162.514 76.5773C156.173 73.4051 148.735 71.8191 140.199 71.8191C132.882 71.8191 126.175 73.1611 120.078 75.8453C117.294 77.0153 114.739 78.4398 112.412 80.1187L101.901 57.2556C104.059 50.7438 107.192 45.2888 111.299 40.8906C119.956 31.4961 131.48 26.7989 145.869 26.7989C150.747 26.7989 155.319 27.2869 159.587 28.263C163.977 29.117 167.818 30.5811 171.111 32.6552L174.952 25.1518C171.05 22.7117 166.599 21.0036 161.599 20.0275C156.6 19.0515 151.356 18.5635 145.869 18.5635C134.528 18.5635 124.59 21.0646 116.054 26.0668C107.991 30.6771 101.614 37.465 96.9236 46.4304L75.8068 0.5H65.4418ZM91.9821 59.1012L70.5264 11.9301L33.3026 94.0379H89.3606C89.1091 90.8978 88.9834 87.6397 88.9834 84.2637C88.9834 74.8504 89.9829 66.4629 91.9821 59.1012ZM104.385 102.782C103.751 105.213 103.433 107.764 103.433 110.434C103.433 115.436 104.836 120.255 107.64 124.892C110.445 129.406 114.53 133.127 119.896 136.055C122.468 137.428 125.31 138.479 128.419 139.208L111.85 102.782H104.385ZM115.516 86.8701L140.148 140.447C146.8 140.431 152.609 139.211 157.575 136.787C162.575 134.225 166.477 130.687 169.282 126.173C172.208 121.536 173.672 116.168 173.672 110.068C173.672 100.917 170.562 93.5971 164.343 88.1069C158.246 82.6166 149.771 79.8715 138.918 79.8715C131.968 79.8715 125.81 81.2135 120.444 83.8977C118.676 84.7824 117.033 85.7733 115.516 86.8701ZM104.878 87.4531L98.676 73.818C98.4333 76.6802 98.3119 79.674 98.3119 82.7996C98.3119 85.6057 98.4948 89.2049 98.8606 93.5971C98.8732 93.7441 98.8863 93.891 98.8999 94.0379H100.972C102.027 91.6751 103.329 89.4802 104.878 87.4531Z" fill="#191C22"/>
<path fill-rule="evenodd" clip-rule="evenodd" d="M71.6688 171.067C72.7721 171.356 73.9169 171.5 75.103 171.5C76.5374 171.5 77.7235 171.287 78.6614 170.861C79.613 170.435 80.3233 169.872 80.7922 169.172C81.275 168.457 81.5163 167.681 81.5163 166.843C81.5163 166.088 81.3646 165.463 81.0612 164.968C80.7715 164.46 80.3854 164.055 79.9026 163.753C79.4199 163.437 78.882 163.19 78.289 163.011C77.7097 162.819 77.1235 162.661 76.5305 162.537C75.9512 162.413 75.4133 162.297 74.9168 162.187C74.4341 162.063 74.041 161.912 73.7376 161.734C73.4479 161.541 73.3031 161.287 73.3031 160.971C73.3031 160.724 73.379 160.504 73.5307 160.312C73.6824 160.12 73.9307 159.968 74.2755 159.859C74.6203 159.735 75.0754 159.673 75.6409 159.673C76.2753 159.673 76.9304 159.769 77.6063 159.962C78.2821 160.14 78.9648 160.415 79.6544 160.786L80.9164 157.757C80.1992 157.345 79.3785 157.036 78.4545 156.83C77.5442 156.61 76.6132 156.5 75.6616 156.5C74.241 156.5 73.0549 156.713 72.1032 157.139C71.1516 157.565 70.4344 158.128 69.9517 158.828C69.4827 159.529 69.2483 160.312 69.2483 161.177C69.2483 161.946 69.4 162.585 69.7034 163.093C70.0068 163.588 70.3999 163.993 70.8826 164.309C71.3653 164.611 71.8963 164.859 72.4756 165.051C73.0687 165.243 73.6548 165.401 74.2341 165.525C74.8272 165.648 75.365 165.772 75.8478 165.896C76.3305 166.019 76.7236 166.177 77.027 166.37C77.3304 166.562 77.4821 166.823 77.4821 167.152C77.4821 167.386 77.3994 167.592 77.2339 167.771C77.0822 167.935 76.8339 168.073 76.4891 168.183C76.1443 168.279 75.6892 168.327 75.1237 168.327C74.2824 168.327 73.4342 168.196 72.579 167.935C71.7377 167.661 70.993 167.317 70.3447 166.905L69 169.913C69.6896 170.38 70.5792 170.765 71.6688 171.067ZM81.6709 171.211L88.0635 156.788H92.0977L98.511 171.211H94.2493L93.1201 168.409H86.9791L85.8499 171.211H81.6709ZM90.0496 160.789L91.9079 165.401H88.1913L90.0496 160.789ZM102.027 160.023V171.211H106.123V160.023H110.551V156.788H97.5791V160.023H102.027ZM116.132 168.059V165.421H122.566V162.372H116.132V159.941H123.435V156.788H112.077V171.211H123.704V168.059H116.132ZM125.977 156.788V171.211H136.983V167.976H130.073V156.788H125.977ZM138.604 171.211V156.788H142.7V167.976H149.61V171.211H138.604ZM151.23 156.788V171.211H155.327V156.788H151.23ZM161.324 171.211V160.023H156.876V156.788H169.847V160.023H165.42V171.211H161.324ZM175.428 168.059V165.421H181.862V162.372H175.428V159.941H182.731V156.788H171.373V171.211H183V168.059H175.428Z" fill="#191C22"/>
</svg>
