<svg width="40" height="40" viewBox="0 0 40 40" fill="none" xmlns="http://www.w3.org/2000/svg">
<path d="M39.9972 20.0007C39.9972 30.1019 32.5098 38.4529 22.7831 39.808C21.8736 39.9341 20.9431 40 19.9986 40C18.9084 40 17.8377 39.9131 16.7951 39.745C7.27298 38.2118 0 29.9548 0 20.0007C0 8.95491 8.9546 0 20 0C31.0454 0 40 8.95491 40 20.0007H39.9972Z" fill="white"/>
<path d="M22.7847 16.0597V20.4167H28.1743L27.3208 26.2857H22.7847V39.8078C21.8752 39.9339 20.9447 39.9997 20.0002 39.9997C18.91 39.9997 17.8393 39.9129 16.7967 39.7447V26.2857H11.8262V20.4167H16.7967V15.0858C16.7967 11.7785 19.4775 9.09619 22.7861 9.09619V9.099C22.7959 9.099 22.8043 9.09619 22.8141 9.09619H28.1757V14.172H24.6723C23.6311 14.172 22.7861 15.0171 22.7861 16.0583L22.7847 16.0597Z" fill="#191C22"/>
</svg>
