<svg width="40" height="40" viewBox="0 0 40 40" fill="none" xmlns="http://www.w3.org/2000/svg">
<path d="M40 20C40 8.9543 31.0457 0 20 0C8.95432 0 0 8.9543 0 20C0 31.0457 8.95432 40 20 40C31.0457 40 40 31.0457 40 20Z" fill="white"/>
<path d="M32.5945 15.856C32.4371 14.3368 32.0984 12.6574 30.8518 11.7748C29.8863 11.0904 28.6173 11.065 27.4325 11.0665C24.9281 11.0665 22.4223 11.0707 19.918 11.0721C17.5091 11.0749 15.1003 11.0763 12.6915 11.0791C11.6852 11.0791 10.7071 11.0018 9.77248 11.4375C8.97001 11.8113 8.3418 12.5224 7.96375 13.3137C7.43954 14.4141 7.32993 15.6607 7.26669 16.8777C7.15004 19.094 7.16269 21.3159 7.30182 23.5308C7.40441 25.147 7.66441 26.9332 8.91379 27.9634C10.0212 28.8755 11.584 28.9204 13.0203 28.9218C17.5794 28.9261 22.1399 28.9303 26.7003 28.9331C27.285 28.9345 27.8949 28.9233 28.4908 28.8586C29.6629 28.7321 30.7801 28.3962 31.5334 27.5277C32.2937 26.6521 32.4891 25.4337 32.6043 24.2799C32.8854 21.4803 32.8826 18.6541 32.5945 15.856ZM17.2815 23.9243V16.0752L24.0779 19.9991L17.2815 23.9243Z" fill="#191C22"/>
</svg>
